<?xml version="1.0" encoding="UTF-8" standalone="no"?><svg xmlns="http://www.w3.org/2000/svg" xmlns:xlink="http://www.w3.org/1999/xlink" contentScriptType="application/ecmascript" contentStyleType="text/css" height="258px" preserveAspectRatio="none" style="width:210px;height:258px;" version="1.1" viewBox="0 0 210 258" width="210px" zoomAndPan="magnify"><defs><filter height="300%" id="f1jp83pq5eyb1e" width="300%" x="-1" y="-1"><feGaussianBlur result="blurOut" stdDeviation="2.0"/><feColorMatrix in="blurOut" result="blurOut2" type="matrix" values="0 0 0 0 0 0 0 0 0 0 0 0 0 0 0 0 0 0 .4 0"/><feOffset dx="4.0" dy="4.0" in="blurOut2" result="blurOut3"/><feBlend in="SourceGraphic" in2="blurOut3" mode="normal"/></filter></defs><g><!--cluster com.google.gson--><polygon fill="#FFFFFF" filter="url(#f1jp83pq5eyb1e)" points="22,24,164,24,171,46.2969,188,46.2969,188,123,22,123,22,24" style="stroke: #000000; stroke-width: 1.5;"/><line style="stroke: #000000; stroke-width: 1.5;" x1="22" x2="171" y1="46.2969" y2="46.2969"/><text fill="#000000" font-family="sans-serif" font-size="14" font-weight="bold" lengthAdjust="spacingAndGlyphs" textLength="136" x="26" y="38.9951">com.google.gson</text><!--cluster ohm.softa.a06--><polygon fill="#FFFFFF" filter="url(#f1jp83pq5eyb1e)" points="29,147,148,147,155,169.2969,181,169.2969,181,246,29,246,29,147" style="stroke: #000000; stroke-width: 1.5;"/><line style="stroke: #000000; stroke-width: 1.5;" x1="29" x2="155" y1="169.2969" y2="169.2969"/><text fill="#000000" font-family="sans-serif" font-size="14" font-weight="bold" lengthAdjust="spacingAndGlyphs" textLength="113" x="33" y="161.9951">ohm.softa.a06</text><!--class TypeAdapter--><rect fill="#FEFECE" filter="url(#f1jp83pq5eyb1e)" height="48" id="TypeAdapter" style="stroke: #A80036; stroke-width: 1.5;" width="134" x="38" y="59"/><ellipse cx="53" cy="75" fill="#A9DCDF" rx="11" ry="11" style="stroke: #A80036; stroke-width: 1.0;"/><path d="M53.1094,70.3438 L51.9531,75.4219 L54.2813,75.4219 L53.1094,70.3438 Z M51.625,68.1094 L54.6094,68.1094 L57.9688,80.5 L55.5156,80.5 L54.75,77.4375 L51.4688,77.4375 L50.7188,80.5 L48.2813,80.5 L51.625,68.1094 Z "/><ellipse cx="72" cy="74.5" fill="#84BE84" rx="3" ry="3" style="stroke: #038048; stroke-width: 1.0;"/><text fill="#000000" font-family="sans-serif" font-size="12" font-style="italic" lengthAdjust="spacingAndGlyphs" textLength="80" x="78" y="79.1543">TypeAdapter</text><rect fill="#FFFFFF" height="15.9688" style="stroke: #000000; stroke-width: 1.0; stroke-dasharray: 2.0,2.0;" width="9" x="166" y="56"/><text fill="#000000" font-family="sans-serif" font-size="12" font-style="italic" lengthAdjust="spacingAndGlyphs" textLength="7" x="167" y="68.1387">T</text><line style="stroke: #A80036; stroke-width: 1.5;" x1="39" x2="171" y1="91" y2="91"/><line style="stroke: #A80036; stroke-width: 1.5;" x1="39" x2="171" y1="99" y2="99"/><!--class JokeAdapter--><rect fill="#FEFECE" filter="url(#f1jp83pq5eyb1e)" height="48" id="JokeAdapter" style="stroke: #A80036; stroke-width: 1.5;" width="119" x="45.5" y="182"/><ellipse cx="60.5" cy="198" fill="#ADD1B2" rx="11" ry="11" style="stroke: #A80036; stroke-width: 1.0;"/><path d="M63.4688,203.6406 Q62.8906,203.9375 62.25,204.0781 Q61.6094,204.2344 60.9063,204.2344 Q58.4063,204.2344 57.0781,202.5938 Q55.7656,200.9375 55.7656,197.8125 Q55.7656,194.6875 57.0781,193.0313 Q58.4063,191.375 60.9063,191.375 Q61.6094,191.375 62.25,191.5313 Q62.9063,191.6875 63.4688,191.9844 L63.4688,194.7031 Q62.8438,194.125 62.25,193.8594 Q61.6563,193.5781 61.0313,193.5781 Q59.6875,193.5781 59,194.6563 Q58.3125,195.7188 58.3125,197.8125 Q58.3125,199.9063 59,200.9844 Q59.6875,202.0469 61.0313,202.0469 Q61.6563,202.0469 62.25,201.7813 Q62.8438,201.5 63.4688,200.9219 L63.4688,203.6406 Z "/><ellipse cx="79.5" cy="197.5" fill="#84BE84" rx="3" ry="3" style="stroke: #038048; stroke-width: 1.0;"/><text fill="#000000" font-family="sans-serif" font-size="12" lengthAdjust="spacingAndGlyphs" textLength="76" x="85.5" y="202.1543">JokeAdapter</text><line style="stroke: #A80036; stroke-width: 1.5;" x1="46.5" x2="163.5" y1="214" y2="214"/><line style="stroke: #A80036; stroke-width: 1.5;" x1="46.5" x2="163.5" y1="222" y2="222"/><!--link TypeAdapter to JokeAdapter--><path d="M105,127.08 C105,145.46 105,166.18 105,181.63 " fill="none" id="TypeAdapter-JokeAdapter" style="stroke: #A80036; stroke-width: 1.0;"/><polygon fill="none" points="98,127.04,105,107.04,112,127.04,98,127.04" style="stroke: #A80036; stroke-width: 1.0;"/><!--
@startuml GsonSpec

package com.google.gson {
    +abstract class TypeAdapter<T> {
    }
}


package ohm.softa.a06 {
    +class JokeAdapter extends TypeAdapter {
    }
}

@enduml

PlantUML version 1.2019.05(Sat Apr 20 18:45:36 CEST 2019)
(GPL source distribution)
Java Runtime: OpenJDK Runtime Environment
JVM: OpenJDK 64-Bit Server VM
Java Version: 1.8.0_282-b08
Operating System: Linux
OS Version: 4.19.180-1-MANJARO
Default Encoding: UTF-8
Language: de
Country: DE
--></g></svg>