<?xml version="1.0" encoding="UTF-8" standalone="no"?><svg xmlns="http://www.w3.org/2000/svg" xmlns:xlink="http://www.w3.org/1999/xlink" contentScriptType="application/ecmascript" contentStyleType="text/css" height="250px" preserveAspectRatio="none" style="width:292px;height:250px;" version="1.1" viewBox="0 0 292 250" width="292px" zoomAndPan="magnify"><defs><filter height="300%" id="f1olv5sklvh9y" width="300%" x="-1" y="-1"><feGaussianBlur result="blurOut" stdDeviation="2.0"/><feColorMatrix in="blurOut" result="blurOut2" type="matrix" values="0 0 0 0 0 0 0 0 0 0 0 0 0 0 0 0 0 0 .4 0"/><feOffset dx="4.0" dy="4.0" in="blurOut2" result="blurOut3"/><feBlend in="SourceGraphic" in2="blurOut3" mode="normal"/></filter></defs><g><!--cluster ohm.softa.a06.model--><polygon fill="#FFFFFF" filter="url(#f1olv5sklvh9y)" points="22,24,194,24,201,46.2969,270,46.2969,270,238,22,238,22,24" style="stroke: #000000; stroke-width: 1.5;"/><line style="stroke: #000000; stroke-width: 1.5;" x1="22" x2="201" y1="46.2969" y2="46.2969"/><text fill="#000000" font-family="sans-serif" font-size="14" font-weight="bold" lengthAdjust="spacingAndGlyphs" textLength="166" x="26" y="38.9951">ohm.softa.a06.model</text><!--class Joke--><rect fill="#FEFECE" filter="url(#f1olv5sklvh9y)" height="163.2422" id="Joke" style="stroke: #A80036; stroke-width: 1.5;" width="215" x="38.5" y="59"/><ellipse cx="123.25" cy="75" fill="#ADD1B2" rx="11" ry="11" style="stroke: #A80036; stroke-width: 1.0;"/><path d="M126.2188,80.6406 Q125.6406,80.9375 125,81.0781 Q124.3594,81.2344 123.6563,81.2344 Q121.1563,81.2344 119.8281,79.5938 Q118.5156,77.9375 118.5156,74.8125 Q118.5156,71.6875 119.8281,70.0313 Q121.1563,68.375 123.6563,68.375 Q124.3594,68.375 125,68.5313 Q125.6563,68.6875 126.2188,68.9844 L126.2188,71.7031 Q125.5938,71.125 125,70.8594 Q124.4063,70.5781 123.7813,70.5781 Q122.4375,70.5781 121.75,71.6563 Q121.0625,72.7188 121.0625,74.8125 Q121.0625,76.9063 121.75,77.9844 Q122.4375,79.0469 123.7813,79.0469 Q124.4063,79.0469 125,78.7813 Q125.5938,78.5 126.2188,77.9219 L126.2188,80.6406 Z "/><ellipse cx="148.75" cy="74.5" fill="#84BE84" rx="3" ry="3" style="stroke: #038048; stroke-width: 1.0;"/><text fill="#000000" font-family="sans-serif" font-size="12" lengthAdjust="spacingAndGlyphs" textLength="26" x="154.75" y="79.1543">Joke</text><line style="stroke: #A80036; stroke-width: 1.5;" x1="39.5" x2="252.5" y1="91" y2="91"/><rect fill="none" height="6" style="stroke: #C82930; stroke-width: 1.0;" width="6" x="46.5" y="99.9023"/><text fill="#000000" font-family="sans-serif" font-size="11" lengthAdjust="spacingAndGlyphs" textLength="66" x="58.5" y="105.2104">number: int</text><rect fill="none" height="6" style="stroke: #C82930; stroke-width: 1.0;" width="6" x="46.5" y="112.707"/><text fill="#000000" font-family="sans-serif" font-size="11" lengthAdjust="spacingAndGlyphs" textLength="84" x="58.5" y="118.0151">content: String</text><rect fill="none" height="6" style="stroke: #C82930; stroke-width: 1.0;" width="6" x="46.5" y="125.5117"/><text fill="#000000" font-family="sans-serif" font-size="11" lengthAdjust="spacingAndGlyphs" textLength="90" x="58.5" y="130.8198">rubrics: String[]</text><line style="stroke: #A80036; stroke-width: 1.5;" x1="39.5" x2="252.5" y1="137.4141" y2="137.4141"/><ellipse cx="49.5" cy="149.3164" fill="#84BE84" rx="3" ry="3" style="stroke: #038048; stroke-width: 1.0;"/><text fill="#000000" font-family="sans-serif" font-size="11" lengthAdjust="spacingAndGlyphs" textLength="93" x="58.5" y="151.6245">getNumber(): int</text><ellipse cx="49.5" cy="162.1211" fill="#84BE84" rx="3" ry="3" style="stroke: #038048; stroke-width: 1.0;"/><text fill="#000000" font-family="sans-serif" font-size="11" lengthAdjust="spacingAndGlyphs" textLength="168" x="58.5" y="164.4292">setNumber(number: int): void</text><ellipse cx="49.5" cy="174.9258" fill="#84BE84" rx="3" ry="3" style="stroke: #038048; stroke-width: 1.0;"/><text fill="#000000" font-family="sans-serif" font-size="11" lengthAdjust="spacingAndGlyphs" textLength="112" x="58.5" y="177.2339">getContent(): String</text><ellipse cx="49.5" cy="187.7305" fill="#84BE84" rx="3" ry="3" style="stroke: #038048; stroke-width: 1.0;"/><text fill="#000000" font-family="sans-serif" font-size="11" lengthAdjust="spacingAndGlyphs" textLength="185" x="58.5" y="190.0386">setContent(content: String): void</text><ellipse cx="49.5" cy="200.5352" fill="#84BE84" rx="3" ry="3" style="stroke: #038048; stroke-width: 1.0;"/><text fill="#000000" font-family="sans-serif" font-size="11" lengthAdjust="spacingAndGlyphs" textLength="118" x="58.5" y="202.8433">getRubrics(): String[]</text><ellipse cx="49.5" cy="213.3398" fill="#84BE84" rx="3" ry="3" style="stroke: #038048; stroke-width: 1.0;"/><text fill="#000000" font-family="sans-serif" font-size="11" lengthAdjust="spacingAndGlyphs" textLength="189" x="58.5" y="215.6479">setRubrics(rubrics: String[]): void</text><!--
@startuml ModelSpec
package ohm.softa.a06.model {
    +class Joke {

        -number: int
        -content: String
        -rubrics: String[]

        +getNumber(): int
        +setNumber(number: int): void
        +getContent(): String
        +setContent(content: String): void
        +getRubrics(): String[]
        +setRubrics(rubrics: String[]): void
    }
}
@enduml

PlantUML version 1.2019.05(Sat Apr 20 18:45:36 CEST 2019)
(GPL source distribution)
Java Runtime: OpenJDK Runtime Environment
JVM: OpenJDK 64-Bit Server VM
Java Version: 1.8.0_282-b08
Operating System: Linux
OS Version: 4.19.180-1-MANJARO
Default Encoding: UTF-8
Language: de
Country: DE
--></g></svg>