<?xml version="1.0" encoding="UTF-8" standalone="no"?><svg xmlns="http://www.w3.org/2000/svg" xmlns:xlink="http://www.w3.org/1999/xlink" contentScriptType="application/ecmascript" contentStyleType="text/css" height="186px" preserveAspectRatio="none" style="width:621px;height:186px;" version="1.1" viewBox="0 0 621 186" width="621px" zoomAndPan="magnify"><defs><filter height="300%" id="fzogama57tr74" width="300%" x="-1" y="-1"><feGaussianBlur result="blurOut" stdDeviation="2.0"/><feColorMatrix in="blurOut" result="blurOut2" type="matrix" values="0 0 0 0 0 0 0 0 0 0 0 0 0 0 0 0 0 0 .4 0"/><feOffset dx="4.0" dy="4.0" in="blurOut2" result="blurOut3"/><feBlend in="SourceGraphic" in2="blurOut3" mode="normal"/></filter></defs><g><!--cluster ohm.softa.a06--><polygon fill="#FFFFFF" filter="url(#fzogama57tr74)" points="22,24,141,24,148,46.2969,599,46.2969,599,174,22,174,22,24" style="stroke: #000000; stroke-width: 1.5;"/><line style="stroke: #000000; stroke-width: 1.5;" x1="22" x2="148" y1="46.2969" y2="46.2969"/><text fill="#000000" font-family="sans-serif" font-size="14" font-weight="bold" lengthAdjust="spacingAndGlyphs" textLength="113" x="26" y="38.9951">ohm.softa.a06</text><!--class ICNDBApi--><rect fill="#FEFECE" filter="url(#fzogama57tr74)" height="99.2188" id="ICNDBApi" style="stroke: #A80036; stroke-width: 1.5;" width="341" x="241.5" y="59"/><ellipse cx="373.75" cy="75" fill="#B4A7E5" rx="11" ry="11" style="stroke: #A80036; stroke-width: 1.0;"/><path d="M369.6719,70.7656 L369.6719,68.6094 L377.0625,68.6094 L377.0625,70.7656 L374.5938,70.7656 L374.5938,78.8438 L377.0625,78.8438 L377.0625,81 L369.6719,81 L369.6719,78.8438 L372.1406,78.8438 L372.1406,70.7656 L369.6719,70.7656 Z "/><ellipse cx="399.25" cy="74.5" fill="#84BE84" rx="3" ry="3" style="stroke: #038048; stroke-width: 1.0;"/><text fill="#000000" font-family="sans-serif" font-size="12" font-style="italic" lengthAdjust="spacingAndGlyphs" textLength="57" x="405.25" y="79.1543">ICNDBApi</text><line style="stroke: #A80036; stroke-width: 1.5;" x1="242.5" x2="581.5" y1="91" y2="91"/><line style="stroke: #A80036; stroke-width: 1.5;" x1="242.5" x2="581.5" y1="99" y2="99"/><text fill="#000000" font-family="sans-serif" font-size="11" lengthAdjust="spacingAndGlyphs" textLength="165" x="247.5" y="113.2104">getRandomJoke(): Call&lt;Joke&gt;</text><text fill="#000000" font-family="sans-serif" font-size="11" lengthAdjust="spacingAndGlyphs" textLength="329" x="247.5" y="126.0151">getRandomJoke(categoriesToInclude: String[]): Call&lt;Joke&gt;</text><text fill="#000000" font-family="sans-serif" font-size="11" lengthAdjust="spacingAndGlyphs" textLength="233" x="247.5" y="138.8198">getRandomJokes(count: int): Call&lt;Joke[]&gt;</text><text fill="#000000" font-family="sans-serif" font-size="11" lengthAdjust="spacingAndGlyphs" textLength="175" x="247.5" y="151.6245">getJokeById(id: int): Call&lt;Joke&gt;</text><!--class App--><rect fill="#FEFECE" filter="url(#fzogama57tr74)" height="60.8047" id="App" style="stroke: #A80036; stroke-width: 1.5;" width="169" x="37.5" y="78"/><ellipse cx="100.25" cy="94" fill="#ADD1B2" rx="11" ry="11" style="stroke: #A80036; stroke-width: 1.0;"/><path d="M103.2188,99.6406 Q102.6406,99.9375 102,100.0781 Q101.3594,100.2344 100.6563,100.2344 Q98.1563,100.2344 96.8281,98.5938 Q95.5156,96.9375 95.5156,93.8125 Q95.5156,90.6875 96.8281,89.0313 Q98.1563,87.375 100.6563,87.375 Q101.3594,87.375 102,87.5313 Q102.6563,87.6875 103.2188,87.9844 L103.2188,90.7031 Q102.5938,90.125 102,89.8594 Q101.4063,89.5781 100.7813,89.5781 Q99.4375,89.5781 98.75,90.6563 Q98.0625,91.7188 98.0625,93.8125 Q98.0625,95.9063 98.75,96.9844 Q99.4375,98.0469 100.7813,98.0469 Q101.4063,98.0469 102,97.7813 Q102.5938,97.5 103.2188,96.9219 L103.2188,99.6406 Z "/><ellipse cx="125.75" cy="93.5" fill="#84BE84" rx="3" ry="3" style="stroke: #038048; stroke-width: 1.0;"/><text fill="#000000" font-family="sans-serif" font-size="12" lengthAdjust="spacingAndGlyphs" textLength="24" x="131.75" y="98.1543">App</text><line style="stroke: #A80036; stroke-width: 1.5;" x1="38.5" x2="205.5" y1="110" y2="110"/><line style="stroke: #A80036; stroke-width: 1.5;" x1="38.5" x2="205.5" y1="118" y2="118"/><ellipse cx="48.5" cy="129.9023" fill="#84BE84" rx="3" ry="3" style="stroke: #038048; stroke-width: 1.0;"/><text fill="#000000" font-family="sans-serif" font-size="11" lengthAdjust="spacingAndGlyphs" text-decoration="underline" textLength="143" x="57.5" y="132.2104">main(args: String[]): void</text><!--
@startuml RetrofitAdapter

package ohm.softa.a06 {

    +interface ICNDBApi {
        getRandomJoke(): Call<Joke>
        getRandomJoke(categoriesToInclude: String[]): Call<Joke>
        getRandomJokes(count: int): Call<Joke[]>
        getJokeById(id: int): Call<Joke>
    }

    +class App {
        +{static} main(args: String[]): void
    }
}

@enduml

PlantUML version 1.2019.05(Sat Apr 20 18:45:36 CEST 2019)
(GPL source distribution)
Java Runtime: OpenJDK Runtime Environment
JVM: OpenJDK 64-Bit Server VM
Java Version: 1.8.0_282-b08
Operating System: Linux
OS Version: 4.19.180-1-MANJARO
Default Encoding: UTF-8
Language: de
Country: DE
--></g></svg>